<svg xmlns="http://www.w3.org/2000/svg" width="1200" height="800" viewBox="0 0 1200 800" role="img" aria-label="Field operations — conceptual illustration">
  <rect width="100%" height="100%" fill="#041227"/>
  <!-- pin + cloud + check -->
  <g transform="translate(160,140)">
    <path d="M200 40c44 0 80 36 80 80 0 72-80 132-80 132s-80-60-80-132c0-44 36-80 80-80z" fill="#052e36" stroke="#06b6d4" stroke-width="3"/>
    <circle cx="200" cy="120" r="22" fill="#06b6d4"/>
    <path d="M190 118 L198 126 L216 106" stroke="#052227" stroke-width="4" stroke-linecap="round" stroke-linejoin="round" fill="none"/>
  </g>

  <g transform="translate(520,170)">
    <rect x="0" y="0" width="420" height="260" rx="12" fill="#062a34" stroke="#0f3a48"/>
    <g transform="translate(28,28)" fill="#7ef0df" opacity="0.9">
      <rect x="0" y="0" width="160" height="14" rx="6"/>
      <rect x="0" y="34" width="120" height="12" rx="6"/>
      <rect x="0" y="64" width="220" height="12" rx="6"/>
    </g>
    <g transform="translate(300,18)">
      <rect x="0" y="0" width="90" height="56" rx="8" fill="#062f2f" stroke="#06b6d4"/>
      <path d="M16 28 L34 46 L74 6" stroke="#06b6d4" stroke-width="3" fill="none" stroke-linecap="round"/>
    </g>
  </g>

  <text x="140" y="660" fill="#9fe7e1" font-family="Inter, Arial" font-size="26" font-weight="600">Field Operations (idea)</text>
  <text x="140" y="692" fill="#8fe7dd" font-family="Inter, Arial" font-size="14">offline-first • mobile-ready • sync-aware</text>
</svg>